<svg width="53" height="53" viewBox="0 0 53 53" fill="none" xmlns="http://www.w3.org/2000/svg">
<path d="M3.29961 36.4998C0.199609 33.3998 0.199609 28.4998 3.29961 25.4998C6.39961 22.3998 11.2996 22.3998 14.2996 25.4998C17.3996 28.5998 17.3996 33.4998 14.2996 36.4998C11.2996 39.4998 6.39961 39.4998 3.29961 36.4998Z" fill="white"/>
<path d="M8.90052 31.9L7.40052 37.3C7.40052 37.5 7.50052 37.7 7.70052 37.7C9.70052 38 11.8005 37.5 13.4005 36.2C13.5005 36.1 13.6005 35.9 13.4005 35.7L9.40052 31.7C9.20052 31.6 8.90052 31.7 8.90052 31.9ZM15.2005 29C15.4005 29 15.5005 28.8 15.4005 28.6C15.1005 27.7 14.5005 26.8 13.8005 26C13.1005 25.3 12.2005 24.7 11.2005 24.4C11.0005 24.3 10.8005 24.4 10.8005 24.6L9.40052 30C9.30052 30.2 9.60052 30.5 9.80052 30.4L15.2005 29ZM2.50052 32.9C2.30052 32.9 2.20052 33.1 2.30052 33.3C2.60052 34.2 3.20052 35.1 3.90052 35.9C4.60052 36.6 5.50052 37.2 6.50052 37.5C6.70052 37.6 6.90052 37.5 6.90052 37.3L8.40052 31.9C8.50052 31.7 8.20052 31.4 8.00052 31.5L2.50052 32.9ZM9.70052 31.5L13.7005 35.5C13.8005 35.6 14.1005 35.6 14.2005 35.5C15.6005 33.9 16.1005 31.8 15.7005 29.8C15.7005 29.6 15.5005 29.5 15.3005 29.5L9.90052 31C9.60052 31 9.60052 31.3 9.70052 31.5ZM8.00052 30.4L4.00052 26.4C3.90052 26.3 3.60052 26.3 3.50052 26.4C2.10052 28 1.60052 30.1 2.00052 32.1C2.00052 32.3 2.20052 32.4 2.40052 32.4L7.80052 30.9C8.10052 30.9 8.20052 30.6 8.00052 30.4ZM8.90052 29.9L10.4005 24.5C10.4005 24.3 10.3005 24.1 10.1005 24.1C8.10052 23.8 6.00052 24.3 4.40052 25.6C4.30052 25.7 4.20052 25.9 4.40052 26.1L8.40052 30.1C8.50052 30.2 8.80052 30.2 8.90052 29.9Z" fill="#F5E346"/>
<path d="M28.5998 50.3C25.4998 53.4 20.4998 53.5 17.3998 50.5C14.3998 47.5 14.4998 42.5 17.5998 39.3C20.6998 36.2 25.6998 36.1 28.7998 39.1C31.8998 42.2 31.7998 47.2 28.5998 50.3Z" fill="#E14A4A"/>
<path d="M23.9 45.7L26.8 45.9L24.2 44.5999L25.9 42.2L23.5 43.7999L22.2 41.2L22.4 44.0999L19.5 43.7999L22.1 45.0999L20.4 47.5L22.8 45.9L24.1 48.5L23.9 45.7Z" fill="#7DBC4F"/>
<path d="M23.7996 44.9001C23.7996 45.3001 23.4996 45.5 23.1996 45.5C22.8996 45.5 22.5996 45.2001 22.5996 44.9001C22.5996 44.6001 22.8996 44.3 23.1996 44.3C23.4996 44.3 23.7996 44.5001 23.7996 44.9001Z" fill="#6CA341"/>
<path d="M46.8988 6.99985C38.9988 -0.900146 25.6988 -0.500145 17.2988 7.89985C12.2988 12.8999 10.0988 19.4999 10.7988 25.7999C15.8988 21.6999 23.1988 21.7999 27.5988 26.1999C32.0988 30.6999 32.0988 37.8999 27.9988 42.9999C34.1988 43.6999 40.8988 41.4999 45.8988 36.4999C54.3988 28.0999 54.7988 14.8999 46.8988 6.99985Z" fill="#F3BF8D"/>
<path d="M27.3987 43.2999L27.7987 42.7999C31.8987 37.7999 31.6987 30.6999 27.3987 26.4999C23.0987 22.1999 16.0987 21.9999 10.9987 26.0999L10.4987 26.4999L10.3987 25.7999C9.69872 19.1999 12.0987 12.4999 16.9987 7.59992C25.5987 -1.00008 39.0987 -1.40009 47.0987 6.69991C55.0987 14.6999 54.6987 28.1999 46.1987 36.7999C41.2987 41.6999 34.6987 44.0999 27.9987 43.3999L27.3987 43.2999ZM27.8987 25.9999C32.2987 30.3999 32.5987 37.4999 28.7987 42.7999C34.9987 43.2999 41.0987 40.8999 45.6987 36.3999C53.9987 28.0999 54.3987 15.0999 46.5987 7.29992C38.7987 -0.500085 25.7987 -8.4877e-05 17.4987 8.19991C12.8987 12.7999 10.5987 18.8999 11.0987 25.0999C16.3987 21.1999 23.4987 21.5999 27.8987 25.9999Z" fill="#9DA6B1"/>
<path d="M44.0992 11.1L42.2992 12.9C46.3992 17.4 47.5992 23.1 44.7992 25.8C44.6992 25.9 44.4992 26.1 44.3992 26.2C46.6992 23.3 45.3992 18 41.4992 13.7L38.0992 17C42.7992 22.2 43.7992 29.1 40.0992 32.8C39.8992 33 39.6992 33.1 39.4992 33.3C42.4992 29.5 41.4992 23 36.9992 18.1L34.2992 20.8C38.8992 26 39.0992 33.7 34.5992 38.3C34.3992 38.5 34.0992 38.7 33.8992 38.9C37.7992 34.3 37.3992 27.1 32.9992 22.1L30.9992 24.1C30.0992 25 29.8992 26.5 30.4992 27.6C33.0992 31.8 33.0992 37.2 30.5992 41.7C35.7992 41.6 40.8992 39.4 44.7992 35.5C51.4992 28.8 52.7992 18.9 48.4992 11.6C47.6992 9.99996 45.3992 9.69996 44.0992 11.1Z" fill="#F47C38"/>
<path d="M14.9996 19.8999C15.1996 19.6999 15.3996 19.3999 15.5996 19.1999C20.1996 14.5999 27.7996 14.7999 33.0996 19.4999L35.7996 16.7999C30.8996 12.2999 24.3996 11.1999 20.5996 14.2999C20.7996 14.0999 20.8996 13.8999 21.0996 13.6999C24.6996 10.0999 31.6996 10.9999 36.8996 15.6999L40.2996 12.2999C35.9996 8.39987 30.6996 7.19987 27.7996 9.39987C27.8996 9.29987 27.9996 9.09987 28.1996 8.99987C30.8996 6.29987 36.5996 7.39987 41.0996 11.4999L42.8996 9.69987C44.1996 8.39987 43.9996 6.09987 42.3996 5.19987C34.8996 0.999868 24.9996 2.29987 18.2996 8.99987C14.3996 12.8999 12.1996 17.9999 12.0996 23.1999C16.5996 20.6999 21.9996 20.7999 26.1996 23.2999C27.2996 23.9999 28.7996 23.7999 29.6996 22.7999L31.6996 20.7999C26.7996 16.3999 19.5996 15.9999 14.9996 19.8999Z" fill="#F47C38"/>
</svg>
